<?xml version="1.0" standalone="no"?>
<!DOCTYPE svg PUBLIC "-//W3C//DTD SVG 20010904//EN"
 "http://www.w3.org/TR/2001/REC-SVG-20010904/DTD/svg10.dtd">
<svg version="1.0" xmlns="http://www.w3.org/2000/svg"
 width="1280.000000pt" height="720.000000pt" viewBox="0 0 1280.000000 720.000000"
 preserveAspectRatio="xMidYMid meet">

<g transform="translate(0.000000,720.000000) scale(0.100000,-0.100000)"
fill="#000000" stroke="none">
<path d="M0 5420 l0 -1781 40 -52 c57 -76 114 -139 212 -240 49 -50 88 -94 88
-98 0 -25 -74 -216 -114 -295 -43 -87 -58 -144 -36 -144 5 0 32 -20 60 -45 28
-25 55 -45 60 -45 5 0 15 -6 23 -14 7 -8 47 -37 88 -64 42 -28 81 -58 89 -67
7 -9 27 -22 45 -29 17 -7 45 -28 63 -45 17 -18 51 -39 75 -47 25 -8 55 -26 67
-40 26 -27 46 -30 72 -10 16 12 68 81 68 91 0 2 12 16 28 32 15 15 63 68 107
116 43 48 87 87 96 87 9 0 74 -20 145 -44 71 -24 181 -60 245 -79 89 -28 118
-42 127 -59 6 -13 16 -84 22 -158 19 -254 23 -291 30 -295 8 -5 217 -15 460
-21 200 -5 186 -6 255 3 49 7 60 12 63 28 1 11 11 52 21 90 35 125 58 229 60
264 3 60 13 67 96 74 42 4 103 14 136 22 33 9 79 20 102 24 23 5 73 18 111 29
93 27 130 16 166 -49 14 -25 42 -65 63 -89 20 -24 37 -49 37 -56 0 -7 18 -34
40 -59 22 -25 40 -51 40 -56 0 -5 11 -14 25 -19 26 -10 35 -7 153 46 29 13 57
24 64 24 18 0 219 101 288 145 36 23 89 57 118 75 29 19 55 43 58 55 5 20 -15
101 -37 150 -5 11 -19 54 -33 95 -13 41 -29 87 -36 102 -23 49 -6 91 58 143
107 87 177 150 247 222 40 42 79 73 90 73 11 0 42 -11 70 -24 71 -35 205 -93
235 -101 14 -4 36 -16 49 -26 36 -28 68 -24 86 11 8 16 24 34 35 40 11 6 31
32 44 58 14 27 41 67 60 91 20 24 36 47 36 53 0 5 18 30 40 55 22 25 40 52 40
59 0 7 20 37 44 67 24 29 49 69 55 89 6 20 21 44 31 53 26 24 25 50 -2 69 -12
9 -52 44 -88 79 -36 35 -78 72 -95 82 -55 35 -125 109 -125 133 0 13 20 83 45
157 25 73 56 172 70 220 40 136 43 141 117 151 35 4 74 10 88 12 14 1 84 6
157 10 87 5 137 11 145 20 7 7 14 36 14 65 1 29 4 124 7 212 5 138 8 322 7
446 0 20 -6 42 -14 48 -8 7 -54 18 -103 25 -78 12 -160 31 -287 69 -45 14 -50
24 -59 127 -3 36 -22 130 -42 210 -21 80 -37 163 -38 185 0 40 0 40 71 88 213
144 272 192 272 222 0 13 -27 86 -61 162 -33 76 -65 152 -71 168 -6 17 -36 71
-66 120 -30 50 -71 118 -91 152 -20 35 -44 66 -55 69 -10 3 -39 -3 -65 -14
-25 -11 -77 -29 -116 -41 -38 -11 -101 -32 -140 -46 -38 -13 -79 -25 -91 -25
-20 0 -85 67 -147 152 l-27 38 -517 0 c-495 0 -515 -1 -500 -18 9 -10 33 -24
54 -31 21 -7 52 -26 68 -41 17 -15 48 -39 71 -53 124 -77 390 -347 466 -473
10 -16 33 -51 53 -78 19 -27 38 -60 41 -75 4 -14 15 -35 24 -46 33 -37 160
-316 180 -394 5 -20 16 -56 25 -81 10 -25 24 -79 31 -120 8 -41 22 -111 30
-155 20 -103 25 -476 6 -518 -6 -16 -15 -67 -18 -115 -3 -48 -17 -125 -31
-172 -14 -47 -28 -106 -32 -131 -4 -26 -15 -58 -24 -73 -10 -14 -31 -67 -48
-118 -32 -94 -43 -117 -90 -178 -14 -19 -36 -62 -48 -95 -13 -33 -40 -83 -62
-111 -21 -28 -39 -56 -39 -62 0 -5 -14 -22 -32 -37 -17 -15 -44 -45 -58 -68
-15 -23 -53 -69 -84 -102 -31 -33 -56 -62 -57 -65 -1 -8 -135 -121 -209 -177
-154 -116 -343 -225 -494 -285 -107 -42 -218 -79 -224 -74 -20 21 2 103 127
484 131 396 139 424 147 517 11 140 6 242 -18 315 -30 92 -80 210 -103 245
-34 52 -146 185 -155 185 -5 0 -15 6 -22 13 -7 7 -56 45 -108 85 -87 66 -162
102 -213 102 -7 0 -52 -25 -98 -55 -243 -160 -239 -156 -240 -244 -1 -65 -28
-298 -41 -346 -5 -22 -12 -78 -14 -125 -6 -150 -13 -233 -25 -310 -14 -96 -15
-103 -30 -238 -7 -62 -18 -117 -24 -122 -5 -4 -77 -43 -160 -85 -82 -42 -154
-81 -159 -86 -12 -11 -57 -12 -71 -1 -6 4 -33 54 -60 112 -27 58 -54 112 -61
120 -6 8 -24 43 -39 77 l-28 63 26 37 c14 21 37 61 51 88 13 28 36 74 51 103
15 28 30 52 35 52 4 0 13 15 21 33 15 38 49 89 66 100 6 4 30 45 52 91 23 46
51 98 64 117 12 19 35 59 51 89 15 30 36 64 46 75 10 11 33 47 50 80 17 33 40
69 50 80 10 11 29 46 41 77 l21 57 -36 89 c-20 50 -36 96 -36 104 0 8 -17 48
-37 88 -36 70 -40 74 -91 91 -29 10 -70 19 -90 19 -142 3 -288 -4 -329 -15
-140 -39 -188 -56 -207 -74 -12 -10 -41 -29 -66 -41 -52 -26 -121 -77 -190
-138 -34 -30 -62 -71 -95 -135 -26 -51 -51 -99 -56 -107 -5 -8 -27 -71 -49
-140 -171 -529 -224 -688 -236 -707 -26 -41 -46 -27 -113 78 -36 55 -73 119
-83 142 -10 22 -24 47 -31 55 -15 18 -72 146 -107 242 -15 41 -35 94 -44 117
-9 24 -17 62 -19 86 -2 24 -7 49 -11 56 -11 18 -36 179 -36 234 0 27 -5 58
-12 70 -14 27 -13 291 2 345 5 21 8 61 6 90 -3 50 11 133 40 238 8 28 14 62
14 75 0 39 88 264 117 301 6 7 18 36 27 63 9 28 34 73 55 101 21 29 42 62 46
75 4 13 16 35 25 49 39 56 80 121 80 127 0 6 62 79 109 128 16 17 52 57 82 90
29 33 62 67 74 75 12 8 44 34 71 57 84 72 241 191 281 212 l38 20 -592 1 -593
0 0 -1780z"/>
<path d="M2480 6801 c-8 -5 -51 -12 -94 -16 -79 -7 -149 -33 -263 -98 -54 -31
-174 -141 -190 -175 -18 -35 -36 -67 -50 -83 -24 -31 -82 -235 -84 -299 -5
-135 46 -315 116 -406 14 -18 25 -38 25 -44 0 -15 95 -106 139 -132 20 -11 47
-31 61 -43 53 -47 225 -93 350 -95 118 -2 169 4 223 28 23 10 56 22 72 26 31
8 191 125 237 173 24 26 46 62 115 194 16 32 29 81 38 146 7 54 16 106 20 116
9 21 -22 190 -41 229 -8 15 -14 34 -14 43 0 9 -20 51 -45 94 -54 93 -191 226
-262 253 -24 9 -50 21 -56 26 -19 15 -108 42 -138 42 -14 0 -43 7 -62 15 -40
17 -74 19 -97 6z"/>
</g>
</svg>
